<?xml version="1.0" encoding="UTF-8" standalone="no"?>
<!DOCTYPE svg PUBLIC "-//W3C//DTD SVG 20010904//EN"
              "http://www.w3.org/TR/2001/REC-SVG-20010904/DTD/svg10.dtd">

<svg xmlns="http://www.w3.org/2000/svg"
     width="6.63889in" height="1.19444in"
     viewBox="0 0 478 86">
  <path id="Selection"
        fill="white" stroke="black" stroke-width="1"
        d="M 7.00,30.00
           C 7.00,30.00 7.00,61.00 7.00,61.00
             14.27,61.00 27.84,63.63 29.38,54.00
             30.01,49.99 27.84,48.08 27.77,45.00
             27.71,42.47 31.02,35.52 26.57,31.74
             23.42,29.06 11.42,30.00 7.00,30.00 Z
           M 201.00,30.00
           C 201.00,30.00 201.00,61.00 201.00,61.00
             201.00,61.00 207.00,61.00 207.00,61.00
             207.00,61.00 207.00,48.00 207.00,48.00
             207.00,48.00 219.00,48.00 219.00,48.00
             219.00,48.00 219.00,61.00 219.00,61.00
             219.00,61.00 224.00,61.00 224.00,61.00
             224.00,61.00 224.00,30.00 224.00,30.00
             224.00,30.00 219.00,30.00 219.00,30.00
             219.00,30.00 219.00,44.00 219.00,44.00
             219.00,44.00 207.00,44.00 207.00,44.00
             207.00,44.00 207.00,30.00 207.00,30.00
             207.00,30.00 201.00,30.00 201.00,30.00 Z
           M 274.00,30.00
           C 274.00,30.00 274.00,61.00 274.00,61.00
             274.00,61.00 279.00,61.00 279.00,61.00
             279.00,61.00 281.00,52.00 281.00,52.00
             281.00,52.00 283.00,52.00 283.00,52.00
             285.88,58.45 286.64,60.74 294.00,61.00
             294.00,61.00 287.47,47.42 287.47,47.42
             287.47,47.42 293.00,39.00 293.00,39.00
             285.52,39.10 283.23,41.04 280.00,48.00
             280.00,48.00 279.00,30.00 279.00,30.00
             279.00,30.00 274.00,30.00 274.00,30.00 Z
           M 357.00,30.00
           C 357.00,30.00 357.00,61.00 357.00,61.00
             364.27,61.00 377.84,63.63 379.38,54.00
             380.01,49.99 377.84,48.08 377.77,45.00
             377.71,42.47 381.02,35.52 376.57,31.74
             373.42,29.06 361.42,30.00 357.00,30.00 Z
           M 428.00,30.00
           C 428.00,30.00 428.00,51.00 428.00,51.00
             428.00,51.00 429.60,59.40 429.60,59.40
             429.60,59.40 436.00,61.00 436.00,61.00
             436.00,61.00 433.00,49.00 433.00,49.00
             433.00,49.00 433.00,30.00 433.00,30.00
             433.00,30.00 428.00,30.00 428.00,30.00 Z
           M 451.13,61.00
           C 451.13,61.00 457.00,61.00 457.00,61.00
             457.00,61.00 457.00,43.00 457.00,43.00
             457.00,43.00 461.00,43.00 461.00,43.00
             461.00,43.00 461.00,39.00 461.00,39.00
             461.00,39.00 457.00,39.00 457.00,39.00
             457.00,39.00 461.00,34.00 461.00,34.00
             461.00,34.00 461.00,30.00 461.00,30.00
             458.96,30.01 455.36,29.74 453.70,30.99
             452.42,31.96 451.96,33.56 451.13,34.98
             447.44,45.14 450.83,39.91 451.13,50.00
             451.13,50.00 451.13,61.00 451.13,61.00 Z
           M 465.13,61.00
           C 465.13,61.00 471.00,61.00 471.00,61.00
             471.00,61.00 471.00,43.00 471.00,43.00
             471.00,43.00 475.00,43.00 475.00,43.00
             475.00,43.00 475.00,39.00 475.00,39.00
             475.00,39.00 471.00,39.00 471.00,39.00
             471.00,39.00 475.00,34.00 475.00,34.00
             475.00,34.00 475.00,30.00 475.00,30.00
             472.96,30.01 469.36,29.74 467.70,30.99
             466.42,31.96 465.96,33.56 465.13,34.98
             461.44,45.14 464.83,39.91 465.13,50.00
             465.13,50.00 465.13,61.00 465.13,61.00 Z
           M 440.00,31.00
           C 440.00,31.00 440.00,35.00 440.00,35.00
             440.00,35.00 445.00,35.00 445.00,35.00
             445.00,35.00 445.00,31.00 445.00,31.00
             445.00,31.00 440.00,31.00 440.00,31.00 Z
           M 13.00,43.00
           C 13.00,43.00 13.00,34.00 13.00,34.00
             15.75,34.06 19.42,34.03 21.68,35.85
             24.26,37.93 23.85,40.90 20.85,42.26
             18.93,43.14 15.17,42.99 13.00,43.00 Z
           M 363.00,43.00
           C 363.00,43.00 363.00,34.00 363.00,34.00
             365.75,34.06 369.42,34.03 371.68,35.85
             374.26,37.93 373.85,40.90 370.85,42.26
             368.93,43.14 365.17,42.99 363.00,43.00 Z
           M 39.00,52.00
           C 39.00,52.00 53.00,52.00 53.00,52.00
             52.91,48.24 52.76,43.35 49.58,40.74
             48.22,39.61 46.71,39.28 45.00,39.11
             38.84,38.50 35.42,40.83 34.33,47.00
             33.66,50.78 34.26,56.66 37.42,59.26
             40.04,61.42 48.96,62.09 50.83,58.63
             51.52,57.35 50.95,56.21 49.67,55.68
             45.66,54.05 44.82,58.43 39.00,52.00 Z
           M 58.00,39.00
           C 58.00,39.00 58.00,61.00 58.00,61.00
             58.00,61.00 63.00,61.00 63.00,61.00
             63.00,57.43 61.59,44.63 67.00,44.63
             72.41,44.63 71.00,57.43 71.00,61.00
             71.00,61.00 76.00,61.00 76.00,61.00
             76.00,55.89 77.50,42.90 72.77,40.02
             70.56,38.67 61.18,39.08 58.00,39.00 Z
           M 83.00,39.00
           C 83.00,39.00 82.40,61.86 82.40,61.86
             82.40,61.86 79.00,65.00 79.00,65.00
             79.00,65.00 79.00,70.00 79.00,70.00
             79.00,70.00 86.26,68.40 86.26,68.40
             86.26,68.40 88.00,61.00 88.00,61.00
             88.00,61.00 88.00,39.00 88.00,39.00
             88.00,39.00 83.00,39.00 83.00,39.00 Z
           M 94.00,41.00
           C 94.00,41.00 94.00,43.00 94.00,43.00
             101.41,45.77 101.07,41.57 106.00,47.00
             103.14,47.00 98.62,46.71 96.15,48.17
             92.04,50.60 92.05,57.55 96.15,59.98
             98.75,61.52 107.63,61.00 111.00,61.00
             111.00,51.22 114.46,37.66 100.00,39.11
             97.30,39.38 96.38,39.90 94.00,41.00 Z
           M 117.00,39.00
           C 117.00,39.00 117.00,61.00 117.00,61.00
             117.00,61.00 122.00,61.00 122.00,61.00
             122.00,57.43 120.59,44.63 126.00,44.63
             131.41,44.63 130.00,57.43 130.00,61.00
             130.00,61.00 135.00,61.00 135.00,61.00
             135.00,57.57 134.04,46.82 137.43,45.17
             139.67,44.08 141.63,46.14 142.40,48.06
             143.29,50.26 143.00,58.20 143.00,61.00
             143.00,61.00 148.00,61.00 148.00,61.00
             148.00,56.56 148.88,44.49 146.26,41.31
             143.42,37.87 138.74,39.36 135.00,39.55
             135.00,39.55 117.00,39.00 117.00,39.00 Z
           M 154.00,39.00
           C 154.00,39.00 154.00,61.00 154.00,61.00
             154.00,61.00 159.00,61.00 159.00,61.00
             159.00,61.00 159.00,39.00 159.00,39.00
             159.00,39.00 154.00,39.00 154.00,39.00 Z
           M 165.00,39.00
           C 165.00,39.00 165.00,61.00 165.00,61.00
             165.00,61.00 170.00,61.00 170.00,61.00
             170.00,57.43 168.59,44.63 174.00,44.63
             179.41,44.63 178.00,57.43 178.00,61.00
             178.00,61.00 183.00,61.00 183.00,61.00
             183.00,55.89 184.50,42.90 179.77,40.02
             177.56,38.67 168.18,39.08 165.00,39.00 Z
           M 230.00,41.00
           C 230.00,41.00 230.00,43.00 230.00,43.00
             237.41,45.77 237.07,41.57 242.00,47.00
             239.14,47.00 234.62,46.71 232.15,48.17
             228.04,50.60 228.05,57.55 232.15,59.98
             234.75,61.52 243.63,61.00 247.00,61.00
             247.00,51.22 250.46,37.66 236.00,39.11
             233.30,39.38 232.38,39.90 230.00,41.00 Z
           M 270.00,56.00
           C 267.17,55.44 261.74,55.81 260.31,54.94
             257.34,53.12 257.34,46.88 260.31,45.06
             262.96,43.45 267.34,45.79 268.83,43.43
             271.47,39.27 261.92,38.90 260.00,39.11
             249.54,40.23 250.99,54.70 254.65,58.57
             257.74,61.84 267.65,63.08 270.00,56.00 Z
           M 301.00,52.00
           C 301.00,52.00 315.00,52.00 315.00,52.00
             314.91,48.24 314.76,43.35 311.58,40.74
             310.22,39.61 308.71,39.28 307.00,39.11
             300.84,38.50 297.42,40.83 296.33,47.00
             295.66,50.78 296.26,56.66 299.42,59.26
             302.04,61.42 310.96,62.09 312.83,58.63
             313.52,57.35 312.95,56.21 311.67,55.68
             307.66,54.05 306.82,58.43 301.00,52.00 Z
           M 320.00,39.00
           C 320.00,39.00 320.00,61.00 320.00,61.00
             320.00,61.00 325.00,61.00 325.00,61.00
             325.00,57.42 324.25,48.08 326.74,45.61
             329.90,42.47 331.85,46.94 336.00,40.00
             336.00,40.00 320.00,39.00 320.00,39.00 Z
           M 385.00,41.00
           C 385.00,41.00 385.00,43.00 385.00,43.00
             392.41,45.77 392.07,41.57 397.00,47.00
             394.14,47.00 389.62,46.71 387.15,48.17
             383.04,50.60 383.05,57.55 387.15,59.98
             389.75,61.52 398.63,61.00 402.00,61.00
             402.00,51.22 405.46,37.66 391.00,39.11
             388.30,39.38 387.38,39.90 385.00,41.00 Z
           M 405.00,39.00
           C 406.96,51.49 416.97,61.69 407.00,65.00
             407.00,65.00 407.00,70.00 407.00,70.00
             407.00,70.00 413.61,68.40 413.61,68.40
             413.61,68.40 418.33,59.00 418.33,59.00
             418.33,59.00 425.00,39.00 425.00,39.00
             425.00,39.00 419.00,39.00 419.00,39.00
             419.00,39.00 415.00,52.00 415.00,52.00
             410.81,42.46 412.55,39.63 405.00,39.00 Z
           M 440.00,39.00
           C 440.00,39.00 440.00,61.00 440.00,61.00
             440.00,61.00 445.00,61.00 445.00,61.00
             445.00,61.00 445.00,39.00 445.00,39.00
             445.00,39.00 440.00,39.00 440.00,39.00 Z
           M 48.00,48.00
           C 48.00,48.00 39.00,48.00 39.00,48.00
             42.15,42.83 45.02,42.27 48.00,48.00 Z
           M 310.00,48.00
           C 310.00,48.00 301.00,48.00 301.00,48.00
             304.15,42.83 307.02,42.27 310.00,48.00 Z
           M 13.00,57.00
           C 13.00,57.00 13.00,47.00 13.00,47.00
             16.54,47.08 23.71,46.92 23.71,52.00
             23.71,53.20 23.32,54.22 22.40,55.02
             20.51,56.66 15.45,56.89 13.00,57.00 Z
           M 363.00,57.00
           C 363.00,57.00 363.00,47.00 363.00,47.00
             366.54,47.08 373.71,46.92 373.71,52.00
             373.71,53.20 373.32,54.22 372.40,55.02
             370.51,56.66 365.45,56.89 363.00,57.00 Z
           M 336.00,48.00
           C 336.00,48.00 336.00,52.00 336.00,52.00
             336.00,52.00 351.00,52.00 351.00,52.00
             351.00,52.00 351.00,48.00 351.00,48.00
             351.00,48.00 336.00,48.00 336.00,48.00 Z
           M 106.00,51.00
           C 105.34,58.85 99.18,58.68 98.00,52.00
             98.00,52.00 106.00,51.00 106.00,51.00 Z
           M 242.00,51.00
           C 241.34,58.85 235.18,58.68 234.00,52.00
             234.00,52.00 242.00,51.00 242.00,51.00 Z
           M 397.00,51.00
           C 396.34,58.85 390.18,58.68 389.00,52.00
             389.00,52.00 397.00,51.00 397.00,51.00 Z" />
</svg>
